<?xml version="1.0" standalone="no"?>
<!DOCTYPE svg PUBLIC "-//W3C//DTD SVG 20010904//EN"
 "http://www.w3.org/TR/2001/REC-SVG-20010904/DTD/svg10.dtd">
<svg version="1.0" xmlns="http://www.w3.org/2000/svg"
 width="1200.000000pt" height="1200.000000pt" viewBox="0 0 1200.000000 1200.000000"
 preserveAspectRatio="xMidYMid meet">
<metadata>
Created by potrace 1.14, written by Peter Selinger 2001-2017
</metadata>
<g transform="translate(0.000000,1200.000000) scale(0.100000,-0.100000)"
fill="#000000" stroke="none">
<path d="M5837 11994 c-1 -1 -67 -4 -147 -8 -80 -4 -161 -9 -180 -11 -19 -2
-60 -6 -90 -9 -100 -9 -165 -16 -195 -21 -16 -3 -50 -7 -75 -10 -25 -4 -67
-10 -95 -15 -27 -5 -68 -12 -90 -15 -22 -4 -44 -8 -50 -9 -5 -2 -28 -6 -50
-10 -197 -37 -423 -93 -630 -157 -137 -43 -286 -93 -320 -108 -11 -5 -36 -15
-55 -22 -280 -101 -687 -302 -1005 -497 -102 -62 -363 -238 -383 -259 -7 -7
-17 -13 -21 -13 -4 0 -16 -8 -27 -18 -10 -9 -39 -33 -64 -51 -52 -40 -183
-144 -190 -151 -3 -3 -36 -32 -75 -65 -325 -277 -699 -682 -936 -1012 -35 -48
-67 -89 -71 -91 -4 -2 -8 -7 -8 -11 0 -5 -33 -58 -74 -118 -70 -105 -226 -359
-226 -369 0 -2 -11 -22 -25 -44 -66 -105 -237 -465 -328 -690 -90 -225 -242
-712 -273 -873 -2 -12 -6 -33 -9 -47 -10 -45 -15 -74 -21 -110 -3 -19 -8 -38
-9 -41 -4 -5 -30 -160 -41 -234 -2 -16 -7 -43 -10 -60 -2 -16 -7 -52 -10 -80
-2 -27 -7 -64 -9 -81 -3 -17 -8 -62 -11 -100 -3 -38 -7 -80 -9 -93 -17 -101
-23 -566 -12 -801 10 -200 37 -464 63 -625 27 -163 47 -267 68 -356 8 -37 17
-78 20 -90 9 -51 77 -300 115 -419 100 -320 208 -585 367 -904 79 -156 88
-174 192 -351 339 -578 786 -1103 1333 -1565 37 -32 57 -47 144 -115 50 -38
95 -73 100 -78 14 -11 237 -169 261 -184 118 -76 305 -193 309 -193 1 0 42
-23 91 -51 120 -69 372 -195 519 -259 66 -28 134 -58 150 -65 17 -7 89 -34
160 -60 72 -26 139 -51 150 -56 41 -17 321 -100 451 -134 210 -54 550 -120
728 -140 32 -4 68 -8 80 -10 23 -4 68 -9 216 -22 194 -17 944 -8 1073 12 12 2
51 6 87 10 81 8 109 11 162 20 24 4 54 8 68 10 100 15 172 28 231 40 38 8 81
17 96 20 278 51 772 205 1088 340 202 87 474 219 557 271 21 13 40 24 43 24
11 0 238 138 373 227 172 114 498 356 542 403 3 3 34 30 70 60 161 135 458
431 604 600 54 63 109 128 123 143 13 16 76 97 139 180 63 84 118 157 122 162
13 16 197 296 220 335 174 293 311 562 408 800 19 47 39 94 44 105 47 100 217
621 236 720 2 11 14 65 28 120 20 82 46 203 70 331 2 12 7 45 11 75 4 30 9 57
11 60 1 3 6 30 9 60 3 30 7 65 10 79 2 14 7 54 11 90 3 36 8 79 10 95 26 209
26 1138 -1 1185 -1 3 -6 43 -10 90 -3 46 -8 87 -10 90 -2 3 -6 28 -9 55 -15
127 -12 109 -66 385 -30 150 -83 367 -116 473 -67 218 -168 506 -204 582 -5
11 -21 49 -36 85 -35 87 -93 209 -166 355 -234 464 -558 936 -907 1320 -87 95
-400 404 -471 465 -36 30 -67 57 -70 60 -3 3 -43 37 -90 76 -672 554 -1464
959 -2298 1175 -143 37 -339 81 -407 92 -16 3 -70 12 -120 21 -49 8 -108 18
-130 20 -95 12 -142 18 -165 21 -14 3 -56 7 -95 10 -38 4 -84 8 -100 10 -94
11 -657 27 -668 19z"/>
</g>
</svg>
